<svg xmlns="http://www.w3.org/2000/svg" viewBox="0 0 100 100">
  <!-- 深色模式 favicon -->
  <defs>
    <linearGradient id="grad-dark" x1="0%" y1="0%" x2="100%" y2="100%">
      <stop offset="0%" style="stop-color:#818cf8;stop-opacity:1" />
      <stop offset="50%" style="stop-color:#a78bfa;stop-opacity:1" />
      <stop offset="100%" style="stop-color:#f472b6;stop-opacity:1" />
    </linearGradient>
    
    <!-- 陰影效果 -->
    <filter id="shadow-dark">
      <feDropShadow dx="0" dy="2" stdDeviation="3" flood-opacity="0.5"/>
    </filter>
  </defs>
  
  <!-- 圓角方形背景 -->
  <rect width="100" height="100" rx="22" fill="url(#grad-dark)"/>
  
  <!-- 文字組 - NOS -->
  <g filter="url(#shadow-dark)">
    <!-- N 字母 -->
    <path d="M 20 35 L 20 65 L 25 65 L 25 42 L 38 65 L 43 65 L 43 35 L 38 35 L 38 58 L 25 35 Z" 
          fill="white"/>
    
    <!-- O 字母 -->
    <circle cx="54" cy="50" r="10" 
            fill="none" 
            stroke="white" 
            stroke-width="5"/>
    
    <!-- S 字母 -->
    <path d="M 77 38 C 77 35 79 33 82 33 C 85 33 87 35 87 38 C 87 41 85 43 82 43 C 79 43 77 45 77 48 C 77 51 79 53 82 53 C 85 53 87 55 87 58 C 87 61 85 63 82 63 C 79 63 77 61 77 58" 
          fill="none" 
          stroke="white" 
          stroke-width="4.5" 
          stroke-linecap="round"/>
  </g>
</svg>

